solid 2d-container-w10h20
facet normal -1.0 0.0 0.0
  outer loop
    vertex 0.0 0.01 0.2
    vertex 0.0 0.0 0.0
    vertex 0.0 0.0 0.2
  endloop
endfacet
facet normal -1.0 0.0 0.0
  outer loop
    vertex 0.0 0.0 0.0
    vertex 0.0 0.01 0.2
    vertex 0.0 0.01 0.0
  endloop
endfacet
facet normal 1.0 -0.0 -0.0
  outer loop
    vertex 0.1 0.01 0.0
    vertex 0.1 0.0 0.2
    vertex 0.1 0.0 0.0
  endloop
endfacet
facet normal 1.0 -0.0 -0.0
  outer loop
    vertex 0.1 0.0 0.2
    vertex 0.1 0.01 0.0
    vertex 0.1 0.01 0.2
  endloop
endfacet
facet normal 0.0 0.0 -1.0
  outer loop
    vertex 0.1 0.01 0.0
    vertex 0.0 0.0 0.0
    vertex 0.0 0.01 0.0
  endloop
endfacet
facet normal 0.0 0.0 -1.0
  outer loop
    vertex 0.0 0.0 0.0
    vertex 0.1 0.01 0.0
    vertex 0.1 0.0 0.0
  endloop
endfacet
endsolid 2d-container-w10h20
