solid Untitled-5ec6e076
facet normal 1.0 -0.0 -0.0
  outer loop
    vertex 0.2 0.01 0.0
    vertex 0.2 0.0 0.15
    vertex 0.2 0.0 0.0
  endloop
endfacet
facet normal 1.0 -0.0 -0.0
  outer loop
    vertex 0.2 0.0 0.15
    vertex 0.2 0.01 0.0
    vertex 0.2 0.01 0.15
  endloop
endfacet
facet normal -1.0 0.0 0.0
  outer loop
    vertex 0.0 0.01 0.15
    vertex 0.0 0.0 0.0
    vertex 0.0 0.0 0.15
  endloop
endfacet
facet normal -1.0 0.0 0.0
  outer loop
    vertex 0.0 0.0 0.0
    vertex 0.0 0.01 0.15
    vertex 0.0 0.01 0.0
  endloop
endfacet
facet normal 0.0 0.0 -1.0
  outer loop
    vertex 0.2 0.01 0.0
    vertex 0.0 0.0 0.0
    vertex 0.0 0.01 0.0
  endloop
endfacet
facet normal 0.0 0.0 -1.0
  outer loop
    vertex 0.0 0.0 0.0
    vertex 0.2 0.01 0.0
    vertex 0.2 0.0 0.0
  endloop
endfacet
endsolid Untitled-5ec6e076
